<svg id="Layer_1" data-name="Layer 1" xmlns="http://www.w3.org/2000/svg" viewBox="0 0 119.61 38.14"><defs><style>.cls-1{fill:#5a5ea9;}</style></defs><polygon class="cls-1" points="17.73 0 11.24 10.1 4.75 0 0 0 9.18 13.82 9.18 23.65 13.33 23.65 13.33 13.82 22.48 0 17.73 0"/><polygon class="cls-1" points="33.11 0 33.11 23.65 47.68 23.65 47.68 20 37.26 20 37.26 0 33.11 0"/><path class="cls-1" d="M73.52,5.15l4.25,11.27H69.26ZM70.93,1,61.64,24.65h4.71l1.74-4.58H78.94l1.74,4.58h4.71L76.11,1Z" transform="translate(-4.39 -1)"/><polygon class="cls-1" points="114.97 0 110.36 18.19 105.47 0 102.17 0 97.28 18.19 92.67 0 88.06 0 94.8 23.65 99.23 23.65 103.84 6.17 108.41 23.65 112.84 23.65 119.61 0 114.97 0"/><path class="cls-1" d="M13.42,37.51l-.49-1.24H10.17l-.5,1.24H8.88L11.12,32H12l2.25,5.56Zm-1.87-4.85-1.18,3h2.35Z" transform="translate(-4.39 -1)"/><path class="cls-1" d="M18.17,37.51l-1.05-3.24-1.05,3.24h-.62l-1.28-4h.65l1,3.21,1.06-3.21h.53l1.06,3.21,1-3.21h.65l-1.28,4Z" transform="translate(-4.39 -1)"/><path class="cls-1" d="M23.24,37.51v-.46a1.76,1.76,0,0,1-1.33.56,1.35,1.35,0,0,1-1.41-1.34A1.32,1.32,0,0,1,21.91,35a1.65,1.65,0,0,1,1.33.55v-.73c0-.54-.43-.85-1-.85a1.62,1.62,0,0,0-1.24.56l-.29-.43a2.11,2.11,0,0,1,1.61-.67c.85,0,1.56.38,1.56,1.36v2.77Zm0-.85V35.9a1.32,1.32,0,0,0-1.11-.5.89.89,0,1,0,0,1.76A1.35,1.35,0,0,0,23.24,36.66Z" transform="translate(-4.39 -1)"/><path class="cls-1" d="M25,37.51v-4h.63v.65A1.71,1.71,0,0,1,27,33.4V34a.9.9,0,0,0-.25,0,1.46,1.46,0,0,0-1.09.65v2.85Z" transform="translate(-4.39 -1)"/><path class="cls-1" d="M30.62,37.51v-.6a1.72,1.72,0,0,1-1.36.7c-1.05,0-1.79-.8-1.79-2.11s.73-2.12,1.79-2.12a1.7,1.7,0,0,1,1.36.71V32h.62v5.56Zm0-1.1V34.59a1.52,1.52,0,0,0-1.21-.65c-.81,0-1.29.67-1.29,1.56s.48,1.55,1.29,1.55A1.51,1.51,0,0,0,30.62,36.41Z" transform="translate(-4.39 -1)"/><path class="cls-1" d="M38.75,37.51,37.53,33,36.3,37.51h-.75L34,32h.77L36,36.58,37.24,32h.58l1.27,4.63L40.32,32h.76L39.5,37.51Z" transform="translate(-4.39 -1)"/><path class="cls-1" d="M41.64,32.49a.43.43,0,1,1,.85,0,.43.43,0,0,1-.85,0Zm.11,5v-4h.63v4Z" transform="translate(-4.39 -1)"/><path class="cls-1" d="M46.26,37.51V34.87c0-.71-.36-.93-.9-.93a1.56,1.56,0,0,0-1.19.62v2.95h-.63v-4h.63v.58a2,2,0,0,1,1.43-.68,1.15,1.15,0,0,1,1.29,1.3v2.83Z" transform="translate(-4.39 -1)"/><path class="cls-1" d="M50.77,37.51V34.87c0-.71-.36-.93-.9-.93a1.56,1.56,0,0,0-1.19.62v2.95h-.63v-4h.63v.58a2,2,0,0,1,1.43-.68,1.14,1.14,0,0,1,1.28,1.3v2.83Z" transform="translate(-4.39 -1)"/><path class="cls-1" d="M52.45,32.49a.43.43,0,1,1,.85,0,.43.43,0,0,1-.85,0Zm.11,5v-4h.63v4Z" transform="translate(-4.39 -1)"/><path class="cls-1" d="M57.07,37.51V34.87c0-.71-.36-.93-.9-.93a1.56,1.56,0,0,0-1.19.62v2.95h-.63v-4H55v.58a2,2,0,0,1,1.43-.68,1.15,1.15,0,0,1,1.29,1.3v2.83Z" transform="translate(-4.39 -1)"/><path class="cls-1" d="M58.85,38.54l.32-.47a1.53,1.53,0,0,0,1.31.55,1.15,1.15,0,0,0,1.29-1.21v-.57a1.67,1.67,0,0,1-1.35.72c-1.05,0-1.79-.79-1.79-2.09s.73-2.09,1.79-2.09a1.67,1.67,0,0,1,1.35.71v-.61h.63v3.91c0,1.33-.94,1.75-1.92,1.75A2.07,2.07,0,0,1,58.85,38.54Zm2.92-2.19V34.59a1.49,1.49,0,0,0-1.2-.65c-.81,0-1.29.64-1.29,1.53S59.76,37,60.57,37A1.5,1.5,0,0,0,61.77,36.35Z" transform="translate(-4.39 -1)"/><path class="cls-1" d="M65.66,37.51V32H69.3v.61h-3v1.8h2.89V35H66.35v2.54Z" transform="translate(-4.39 -1)"/><path class="cls-1" d="M72.65,37.51v-.46a1.78,1.78,0,0,1-1.34.56,1.34,1.34,0,0,1-1.4-1.34A1.31,1.31,0,0,1,71.31,35a1.69,1.69,0,0,1,1.34.55v-.73c0-.54-.44-.85-1-.85a1.61,1.61,0,0,0-1.23.56l-.29-.43a2.1,2.1,0,0,1,1.6-.67c.85,0,1.56.38,1.56,1.36v2.77Zm0-.85V35.9a1.33,1.33,0,0,0-1.11-.5.89.89,0,1,0,0,1.76A1.36,1.36,0,0,0,72.65,36.66Z" transform="translate(-4.39 -1)"/><path class="cls-1" d="M79.3,37.51V34.77c0-.51-.23-.83-.74-.83a1.41,1.41,0,0,0-1.07.62v2.95h-.63V34.77c0-.51-.21-.83-.74-.83a1.42,1.42,0,0,0-1.06.62v2.95h-.62v-4h.62v.58a1.77,1.77,0,0,1,1.3-.68,1,1,0,0,1,1.09.75,1.67,1.67,0,0,1,1.35-.75c.73,0,1.12.41,1.12,1.22v2.91Z" transform="translate(-4.39 -1)"/><path class="cls-1" d="M81,32.49a.42.42,0,1,1,.84,0,.42.42,0,1,1-.84,0Zm.11,5v-4h.63v4Z" transform="translate(-4.39 -1)"/><path class="cls-1" d="M82.88,37.51V32h.63v5.56Z" transform="translate(-4.39 -1)"/><path class="cls-1" d="M84.55,38.51a.8.8,0,0,0,.34.07.57.57,0,0,0,.6-.42l.27-.61-1.69-4.07h.68l1.34,3.3,1.33-3.3h.69l-2,4.84a1.19,1.19,0,0,1-1.18.82,2.22,2.22,0,0,1-.46-.06Z" transform="translate(-4.39 -1)"/><path class="cls-1" d="M90.77,37.51V32h.69v4.94H94v.62Z" transform="translate(-4.39 -1)"/><path class="cls-1" d="M97.31,37.51v-.46a1.76,1.76,0,0,1-1.33.56,1.34,1.34,0,0,1-1.41-1.34A1.31,1.31,0,0,1,96,35a1.67,1.67,0,0,1,1.33.55v-.73c0-.54-.43-.85-1-.85a1.61,1.61,0,0,0-1.23.56l-.29-.43a2.11,2.11,0,0,1,1.61-.67c.85,0,1.55.38,1.55,1.36v2.77Zm0-.85V35.9a1.33,1.33,0,0,0-1.11-.5.89.89,0,1,0,0,1.76A1.36,1.36,0,0,0,97.31,36.66Z" transform="translate(-4.39 -1)"/><path class="cls-1" d="M102.58,37.51l-1-3.24-1,3.24h-.62l-1.28-4h.65l1,3.21,1.06-3.21h.53l1.06,3.21,1-3.21h.65l-1.28,4Z" transform="translate(-4.39 -1)"/><path class="cls-1" d="M105,38.51a.8.8,0,0,0,.34.07.57.57,0,0,0,.6-.42l.27-.61-1.68-4.07h.67l1.34,3.3,1.33-3.3h.69l-2,4.84a1.19,1.19,0,0,1-1.18.82,2.32,2.32,0,0,1-.46-.06Z" transform="translate(-4.39 -1)"/><path class="cls-1" d="M108.9,35.49a2,2,0,0,1,2-2.11,2,2,0,0,1,1.93,2.16v.16h-3.26A1.41,1.41,0,0,0,111,37.09a1.72,1.72,0,0,0,1.24-.51l.3.41a2.19,2.19,0,0,1-1.6.62A2,2,0,0,1,108.9,35.49Zm2-1.59a1.34,1.34,0,0,0-1.32,1.34h2.64A1.3,1.3,0,0,0,110.88,33.9Z" transform="translate(-4.39 -1)"/><path class="cls-1" d="M113.74,37.51v-4h.63v.65a1.71,1.71,0,0,1,1.34-.73V34a.9.9,0,0,0-.25,0,1.46,1.46,0,0,0-1.09.65v2.85Z" transform="translate(-4.39 -1)"/><path class="cls-1" d="M116.06,37l.33-.45a1.8,1.8,0,0,0,1.32.58c.62,0,1-.29,1-.69,0-1-2.49-.38-2.49-1.87,0-.63.54-1.16,1.5-1.16a2,2,0,0,1,1.49.58l-.29.44a1.57,1.57,0,0,0-1.2-.51c-.55,0-.89.27-.89.63,0,.89,2.49.3,2.49,1.87,0,.67-.54,1.22-1.58,1.22A2.13,2.13,0,0,1,116.06,37Z" transform="translate(-4.39 -1)"/></svg>